<?xml version="1.0" encoding="UTF-8"?>
<svg width="200" height="200" viewBox="0 0 200 200" xmlns="http://www.w3.org/2000/svg">
  <defs>
    <clipPath id="circle-clip">
      <circle cx="100" cy="100" r="95"/>
    </clipPath>
  </defs>
  
  <!-- Background circle -->
  <circle cx="100" cy="100" r="95" fill="#1B7C74"/>
  
  <!-- Tree rings - representing spatial data -->
  <circle cx="100" cy="100" r="80" fill="none" stroke="#2A9D8F" stroke-width="2" opacity="0.5"/>
  <circle cx="100" cy="100" r="60" fill="none" stroke="#2A9D8F" stroke-width="2" opacity="0.4"/>
  <circle cx="100" cy="100" r="40" fill="none" stroke="#2A9D8F" stroke-width="2" opacity="0.3"/>
  
  <!-- Grid overlay -->
  <g clip-path="url(#circle-clip)" stroke="#40E0D0" stroke-width="1" opacity="0.4">
    <!-- Vertical lines -->
    <line x1="20" y1="5" x2="20" y2="195"/>
    <line x1="50" y1="5" x2="50" y2="195"/>
    <line x1="80" y1="5" x2="80" y2="195"/>
    <line x1="110" y1="5" x2="110" y2="195"/>
    <line x1="140" y1="5" x2="140" y2="195"/>
    <line x1="170" y1="5" x2="170" y2="195"/>
    <!-- Horizontal lines -->
    <line x1="5" y1="20" x2="195" y2="20"/>
    <line x1="5" y1="50" x2="195" y2="50"/>
    <line x1="5" y1="80" x2="195" y2="80"/>
    <line x1="5" y1="110" x2="195" y2="110"/>
    <line x1="5" y1="140" x2="195" y2="140"/>
    <line x1="5" y1="170" x2="195" y2="170"/>
  </g>
  
  <!-- Raster cells highlighted -->
  <rect x="80" y="50" width="30" height="30" fill="#40E0D0" opacity="0.3"/>
  <rect x="110" y="80" width="30" height="30" fill="#40E0D0" opacity="0.4"/>
  <rect x="80" y="110" width="30" height="30" fill="#40E0D0" opacity="0.25"/>
  <rect x="50" y="80" width="30" height="30" fill="#40E0D0" opacity="0.35"/>
  
  <!-- Center core -->
  <circle cx="100" cy="100" r="8" fill="#40E0D0"/>
</svg>
